<svg width="826" height="178" viewBox="0 0 826 178" fill="none" xmlns="http://www.w3.org/2000/svg">
<g clip-path="url(#clip0_1_42)">
<path fill-rule="evenodd" clip-rule="evenodd" d="M168.328 52.2855C154.125 20.5621 122.557 0.0649414 87.8906 0.0649414C78.7797 0.0649414 69.8572 1.48067 61.2383 4.24641L68.5576 19.7756C74.8353 17.9835 81.3074 17.0576 87.8906 17.0576C101.134 17.0576 113.801 20.7991 124.709 27.4118L105.112 97.3259L83.9681 52.5862L65.3494 97.529L51.7385 65.5049L43.3081 83.5072L64.266 132.996L84.0514 89.0466L108.96 142.542L142.286 42.4173C146.522 47.435 150.12 53.074 152.883 59.2467C160.675 76.6575 161.25 96.0715 154.494 113.914C149.32 127.574 140.308 139.051 128.584 147.199L135.904 162.732C151.57 152.585 163.57 137.763 170.32 119.948C178.681 97.8636 177.972 73.834 168.328 52.2855Z" fill="#071412"/>
<path fill-rule="evenodd" clip-rule="evenodd" d="M114.78 155.371C79.8105 169.763 39.4923 153.553 23.9047 118.327C16.1798 100.858 15.6153 81.3887 22.3094 63.4928C28.435 47.1289 39.9821 33.8888 55.0601 25.7458L47.9332 10.2806C28.8835 20.3271 14.3071 36.9027 6.61762 57.441C-1.67186 79.5931 -0.969599 103.689 8.59458 125.311C23.1277 158.167 55.0523 177.671 88.4246 177.663C99.6195 177.663 110.972 175.44 121.891 170.814L114.78 155.371Z" fill="#071412"/>
<path fill-rule="evenodd" clip-rule="evenodd" d="M261.975 72.5246L252.029 42.5363H247.205L237.203 72.5783L227.2 42.5363H220.12L234.564 86.0635H239.452L249.512 56.0752L259.457 86.0635H264.409L279.057 42.5363H272.034L261.975 72.5246Z" fill="#071412"/>
<path fill-rule="evenodd" clip-rule="evenodd" d="M306.068 86.0632H312.972V42.5417H306.068V86.0632Z" fill="#071412"/>
<path fill-rule="evenodd" clip-rule="evenodd" d="M350.249 42.5363H343.354V86.0654H370.22V80.158H350.249V42.5363Z" fill="#071412"/>
<path fill-rule="evenodd" clip-rule="evenodd" d="M404.187 42.5363H397.292V86.0654H424.157V80.158H404.187V42.5363Z" fill="#071412"/>
<path fill-rule="evenodd" clip-rule="evenodd" d="M487.685 64.1919C487.685 66.6167 487.245 68.861 486.366 70.8653C485.486 72.8658 484.266 74.6148 482.74 76.0586C481.224 77.51 479.428 78.6523 477.407 79.4529C473.37 81.0656 468.347 81.0713 464.281 79.426C462.238 78.6062 460.43 77.4562 458.904 76.0048C457.388 74.5611 456.174 72.814 455.288 70.8116C454.409 68.8092 453.969 66.6051 453.969 64.2456C453.969 61.9207 454.392 59.7378 455.229 57.7546C456.075 55.7733 457.252 54.0319 458.734 52.5882C460.209 51.1425 461.999 49.9925 464.034 49.1728C466.077 48.353 468.325 47.9383 470.739 47.9383C473.185 47.9383 475.469 48.353 477.535 49.1728C479.584 49.9925 481.394 51.1425 482.898 52.594C484.394 54.0396 485.585 55.7656 486.423 57.7277C487.26 59.6898 487.685 61.8612 487.685 64.1919ZM487.791 48.328C485.685 46.3256 483.145 44.7321 480.251 43.584C477.356 42.4417 474.158 41.8561 470.739 41.8561C467.439 41.8561 464.304 42.4417 461.432 43.5898C458.558 44.7321 456.032 46.3256 453.926 48.328C451.81 50.3304 450.136 52.7149 448.938 55.4104C447.74 58.1174 447.13 61.0951 447.13 64.2456C447.13 67.4364 447.746 70.441 448.975 73.1615C450.195 75.8839 451.889 78.2895 454.017 80.3053C456.146 82.3212 458.685 83.9204 461.557 85.0493C464.439 86.1724 467.567 86.7426 470.858 86.7426C474.116 86.7426 477.223 86.159 480.101 85.0147C482.975 83.8743 485.514 82.2674 487.635 80.2516C489.765 78.2357 491.459 75.8301 492.687 73.1097C493.906 70.3815 494.532 67.3961 494.532 64.2456C494.532 61.1354 493.928 58.1712 492.75 55.4507C491.565 52.7226 489.899 50.3228 487.791 48.328Z" fill="#071412"/>
<path fill-rule="evenodd" clip-rule="evenodd" d="M568.082 42.5363H565.54L555.481 72.5246L545.535 42.5363H540.711L530.709 72.5783L520.706 42.5363H513.626L528.07 86.0654H532.956L543.016 56.0752L552.961 86.0654H557.913L570.572 48.4494H600.458V86.0654H607.416V48.4494H621.073L623.82 42.5363H572.563H568.082Z" fill="#071412"/>
<path fill-rule="evenodd" clip-rule="evenodd" d="M666.208 52.629C666.662 53.4545 666.883 54.3358 666.883 55.3168C666.883 56.5666 666.642 57.6552 666.165 58.5691C665.691 59.4695 665.016 60.2355 664.165 60.8403C663.263 61.4719 662.193 61.9615 660.981 62.2974C659.732 62.6411 658.376 62.8158 656.943 62.8158H650.374V48.4494H657.397C658.824 48.4494 660.15 48.6299 661.342 48.987C662.513 49.3364 663.512 49.826 664.315 50.4519C665.122 51.0701 665.74 51.7823 666.208 52.629ZM664.074 67.4792C665.975 66.8686 667.675 65.9932 669.116 64.8777C670.578 63.7489 671.755 62.3723 672.635 60.7942C673.523 59.1796 673.969 57.3787 673.969 55.4301C673.969 53.5294 673.549 51.7555 672.714 50.1485C671.883 48.5646 670.72 47.1785 669.252 46.0439C667.803 44.9207 666.088 44.0472 664.165 43.4424C662.25 42.8454 660.15 42.5363 657.916 42.5363H643.479V86.0654H650.374V68.2318L668.415 86.0654H677.615L659.596 68.3258C661.151 68.2106 662.647 67.9284 664.074 67.4792Z" fill="#071412"/>
<path fill-rule="evenodd" clip-rule="evenodd" d="M710.21 66.861H729.471V60.9478H710.21V48.4494H730.763V42.5363H703.315V86.0654H731.997V80.1599H710.21V66.861Z" fill="#071412"/>
<path fill-rule="evenodd" clip-rule="evenodd" d="M767.524 66.861H786.785V60.9478H767.524V48.4494H788.083V42.5363H760.629V86.0654H789.311V80.1599H767.524V66.861Z" fill="#071412"/>
<path fill-rule="evenodd" clip-rule="evenodd" d="M817.562 49.3631C817.278 49.5992 816.921 49.7144 816.469 49.7144H815.202V47.2685H816.654C816.85 47.2685 817.033 47.3031 817.185 47.3703C817.357 47.4432 817.499 47.5315 817.616 47.6448C817.732 47.7466 817.813 47.8637 817.874 48.0153C817.935 48.1421 817.961 48.263 817.961 48.3878C817.961 48.8159 817.831 49.1365 817.562 49.3631ZM822.825 53.128C822.463 53.917 821.958 54.6178 821.321 55.2148C821.301 55.236 821.279 55.2552 821.257 55.2763L817.608 51.3252C817.793 51.2887 817.977 51.235 818.156 51.1639C818.533 51.0142 818.859 50.8088 819.153 50.5381C819.432 50.2789 819.664 49.9621 819.844 49.5916C820.006 49.2306 820.089 48.839 820.089 48.4281C820.089 48.0077 820.01 47.6083 819.854 47.2359C819.694 46.8615 819.461 46.5351 819.167 46.2625C818.871 45.9899 818.51 45.7729 818.093 45.6155C817.675 45.46 817.219 45.3794 816.739 45.3794H813.117V55.3185H815.202V51.5421L818.533 55.2168L818.624 55.3185H821.21C820.606 55.858 819.899 56.2977 819.104 56.6259C817.452 57.3133 815.373 57.3171 813.696 56.6259C812.853 56.2785 812.107 55.8023 811.479 55.2148C810.845 54.6178 810.34 53.917 809.977 53.128C809.61 52.337 809.426 51.4749 809.426 50.563C809.426 49.6549 809.61 48.7929 809.977 48C810.34 47.2052 810.847 46.5006 811.479 45.8997C812.109 45.3026 812.855 44.8245 813.696 44.4751C814.534 44.1295 815.444 43.9567 816.404 43.9567C817.367 43.9567 818.277 44.1295 819.106 44.4751C819.947 44.8245 820.693 45.3026 821.321 45.8997C821.956 46.5006 822.46 47.2052 822.825 48C823.188 48.7891 823.373 49.6511 823.373 50.563C823.373 51.4769 823.188 52.3389 822.825 53.128ZM824.52 47.2973C824.054 46.2836 823.419 45.3909 822.631 44.646C821.826 43.8915 820.886 43.2867 819.824 42.849C817.671 41.9774 815.125 41.9793 812.975 42.8509C811.915 43.2867 810.972 43.8915 810.178 44.6441C809.377 45.3966 808.755 46.2644 808.283 47.2973C807.823 48.3168 807.59 49.4073 807.59 50.5438C807.59 51.6765 807.823 52.7651 808.283 53.7845C808.755 54.8136 809.375 55.6833 810.178 56.4416C810.981 57.2019 811.921 57.8028 812.977 58.231C814.051 58.6668 815.202 58.8856 816.404 58.8856C817.602 58.8856 818.751 58.6668 819.824 58.231C820.878 57.8047 821.822 57.2019 822.633 56.4416C823.421 55.6891 824.056 54.7963 824.52 53.7845C824.978 52.7651 825.211 51.6765 825.211 50.5438C825.211 49.4073 824.978 48.3168 824.52 47.2973Z" fill="#071412"/>
<path d="M244.408 131.688C244.408 130.529 244.058 129.677 243.359 129.13C242.66 128.562 241.731 128.278 240.572 128.278C239.698 128.278 238.867 128.453 238.08 128.802C237.315 129.13 236.671 129.556 236.146 130.081L234.507 128.114C235.272 127.393 236.201 126.824 237.294 126.409C238.408 125.994 239.6 125.786 240.867 125.786C241.982 125.786 242.944 125.95 243.752 126.278C244.583 126.584 245.261 127.01 245.785 127.557C246.31 128.103 246.703 128.748 246.965 129.491C247.228 130.234 247.359 131.032 247.359 131.884V138.671C247.359 139.195 247.37 139.753 247.392 140.343C247.435 140.911 247.501 141.381 247.588 141.753H244.802C244.627 141.01 244.539 140.266 244.539 139.523H244.441C243.873 140.354 243.151 140.999 242.277 141.458C241.425 141.917 240.408 142.146 239.228 142.146C238.616 142.146 237.971 142.059 237.294 141.884C236.638 141.731 236.037 141.469 235.49 141.097C234.944 140.725 234.485 140.234 234.113 139.622C233.764 139.01 233.589 138.256 233.589 137.359C233.589 136.179 233.906 135.25 234.54 134.573C235.173 133.873 236.004 133.349 237.031 132.999C238.059 132.627 239.217 132.387 240.507 132.278C241.796 132.168 243.097 132.114 244.408 132.114V131.688ZM243.654 134.343C242.889 134.343 242.091 134.376 241.261 134.442C240.452 134.507 239.709 134.638 239.031 134.835C238.376 135.032 237.829 135.327 237.392 135.72C236.955 136.114 236.736 136.638 236.736 137.294C236.736 137.753 236.824 138.135 236.999 138.441C237.195 138.747 237.447 138.999 237.753 139.195C238.059 139.392 238.397 139.534 238.769 139.622C239.141 139.687 239.523 139.72 239.916 139.72C241.359 139.72 242.463 139.294 243.228 138.441C244.015 137.567 244.408 136.474 244.408 135.163V134.343H243.654Z" fill="#071412"/>
<path d="M271.967 141.753H268.721V121.393H261.279V118.541H279.409V121.393H271.967V141.753Z" fill="#071412"/>
<path d="M287.633 138.868H299.764V141.753H284.387V118.541H299.272V121.393H287.633V128.343H298.583V131.13H287.633V138.868Z" fill="#071412"/>
<path d="M309.209 138.868H319.569V141.753H305.963V118.541H309.209V138.868Z" fill="#071412"/>
<path d="M332.645 142.343C331.115 142.343 329.781 142.091 328.645 141.589C327.508 141.064 326.568 140.376 325.825 139.523C325.082 138.671 324.525 137.698 324.153 136.605C323.803 135.491 323.629 134.343 323.629 133.163V118.541H326.874V132.966C326.874 133.753 326.973 134.54 327.169 135.327C327.366 136.092 327.683 136.78 328.12 137.392C328.579 138.004 329.169 138.496 329.891 138.868C330.634 139.239 331.552 139.425 332.645 139.425C333.716 139.425 334.623 139.239 335.366 138.868C336.109 138.496 336.699 138.004 337.136 137.392C337.595 136.78 337.923 136.092 338.12 135.327C338.316 134.54 338.415 133.753 338.415 132.966V118.541H341.661V133.163C341.661 134.343 341.475 135.491 341.103 136.605C340.754 137.698 340.207 138.671 339.464 139.523C338.721 140.376 337.781 141.064 336.644 141.589C335.508 142.091 334.175 142.343 332.645 142.343Z" fill="#071412"/>
<path d="M360.559 122.835C360.1 122.202 359.477 121.688 358.69 121.295C357.903 120.879 357.018 120.672 356.034 120.672C355.51 120.672 354.974 120.748 354.428 120.901C353.903 121.032 353.422 121.262 352.985 121.59C352.548 121.896 352.187 122.289 351.903 122.77C351.641 123.229 351.51 123.786 351.51 124.442C351.51 125.076 351.63 125.611 351.87 126.048C352.133 126.464 352.472 126.824 352.887 127.13C353.324 127.415 353.827 127.666 354.395 127.884C354.985 128.081 355.608 128.289 356.264 128.507C357.051 128.748 357.848 129.021 358.657 129.327C359.466 129.633 360.198 130.037 360.854 130.54C361.509 131.043 362.045 131.677 362.46 132.442C362.875 133.185 363.083 134.136 363.083 135.294C363.083 136.496 362.854 137.545 362.395 138.441C361.957 139.316 361.367 140.048 360.624 140.638C359.881 141.206 359.018 141.632 358.034 141.917C357.072 142.201 356.078 142.343 355.051 142.343C353.586 142.343 352.166 142.059 350.789 141.49C349.433 140.922 348.308 140.081 347.412 138.966L349.936 136.835C350.483 137.644 351.215 138.299 352.133 138.802C353.051 139.305 354.045 139.556 355.116 139.556C355.663 139.556 356.209 139.48 356.756 139.327C357.302 139.174 357.794 138.933 358.231 138.605C358.69 138.277 359.061 137.873 359.346 137.392C359.63 136.89 359.772 136.288 359.772 135.589C359.772 134.89 359.619 134.31 359.313 133.851C359.029 133.371 358.635 132.966 358.132 132.638C357.63 132.31 357.04 132.037 356.362 131.819C355.706 131.578 355.007 131.338 354.264 131.097C353.521 130.879 352.788 130.617 352.067 130.311C351.346 129.983 350.701 129.578 350.133 129.097C349.565 128.595 349.106 127.983 348.756 127.262C348.406 126.54 348.231 125.644 348.231 124.573C348.231 123.415 348.461 122.42 348.92 121.59C349.401 120.759 350.013 120.071 350.756 119.524C351.521 118.978 352.373 118.584 353.313 118.344C354.275 118.082 355.236 117.95 356.198 117.95C357.553 117.95 358.821 118.191 360.001 118.672C361.182 119.153 362.132 119.797 362.854 120.606L360.559 122.835Z" fill="#071412"/>
<path d="M382.897 141.753H379.651V118.541H382.897V141.753Z" fill="#071412"/>
<path d="M392.404 126.212C392.448 126.606 392.48 127.054 392.502 127.557C392.524 128.037 392.535 128.442 392.535 128.77H392.633C392.83 128.354 393.092 127.972 393.42 127.622C393.77 127.251 394.163 126.934 394.6 126.671C395.038 126.387 395.518 126.169 396.043 126.016C396.568 125.863 397.114 125.786 397.682 125.786C398.688 125.786 399.551 125.961 400.272 126.311C400.994 126.639 401.595 127.087 402.076 127.655C402.556 128.223 402.906 128.89 403.125 129.655C403.365 130.42 403.485 131.239 403.485 132.114V141.753H400.403V133.13C400.403 132.496 400.349 131.895 400.24 131.327C400.152 130.759 399.977 130.256 399.715 129.819C399.453 129.382 399.092 129.032 398.633 128.77C398.174 128.507 397.584 128.376 396.863 128.376C395.639 128.376 394.633 128.846 393.846 129.786C393.081 130.704 392.699 131.939 392.699 133.491V141.753H389.617V129.556C389.617 129.141 389.606 128.606 389.584 127.95C389.562 127.294 389.53 126.715 389.486 126.212H392.404Z" fill="#071412"/>
<path d="M417.535 128.737H413.404V136.835C413.404 137.775 413.579 138.452 413.929 138.868C414.278 139.261 414.836 139.458 415.601 139.458C415.885 139.458 416.191 139.425 416.519 139.359C416.846 139.294 417.142 139.195 417.404 139.064L417.502 141.589C417.131 141.72 416.715 141.818 416.256 141.884C415.819 141.971 415.36 142.015 414.879 142.015C413.415 142.015 412.289 141.611 411.502 140.802C410.737 139.993 410.355 138.78 410.355 137.163V128.737H407.371V126.212H410.355V121.754H413.404V126.212H417.535V128.737Z" fill="#071412"/>
<path d="M433.98 132.606C433.958 131.994 433.849 131.425 433.652 130.901C433.477 130.354 433.204 129.884 432.833 129.491C432.483 129.097 432.035 128.791 431.488 128.573C430.964 128.332 430.341 128.212 429.62 128.212C428.964 128.212 428.341 128.332 427.751 128.573C427.183 128.791 426.68 129.097 426.243 129.491C425.828 129.884 425.478 130.354 425.194 130.901C424.931 131.425 424.778 131.994 424.735 132.606H433.98ZM437.095 133.851C437.095 134.026 437.095 134.201 437.095 134.376C437.095 134.551 437.084 134.726 437.062 134.901H424.735C424.757 135.556 424.899 136.179 425.161 136.769C425.445 137.338 425.817 137.84 426.276 138.277C426.735 138.693 427.259 139.021 427.849 139.261C428.461 139.501 429.106 139.622 429.784 139.622C430.833 139.622 431.74 139.392 432.505 138.933C433.27 138.474 433.871 137.917 434.308 137.261L436.472 138.999C435.641 140.092 434.658 140.9 433.521 141.425C432.406 141.928 431.161 142.179 429.784 142.179C428.603 142.179 427.511 141.982 426.505 141.589C425.5 141.195 424.636 140.649 423.915 139.949C423.194 139.228 422.625 138.365 422.21 137.359C421.795 136.354 421.587 135.239 421.587 134.015C421.587 132.813 421.784 131.709 422.177 130.704C422.593 129.677 423.161 128.802 423.882 128.081C424.604 127.36 425.456 126.803 426.44 126.409C427.423 125.994 428.483 125.786 429.62 125.786C430.756 125.786 431.784 125.972 432.702 126.344C433.641 126.715 434.428 127.251 435.062 127.95C435.718 128.649 436.221 129.502 436.57 130.507C436.92 131.491 437.095 132.606 437.095 133.851Z" fill="#071412"/>
<path d="M443.283 129.556C443.283 129.141 443.272 128.606 443.25 127.95C443.228 127.294 443.195 126.715 443.152 126.212H446.07C446.113 126.606 446.146 127.065 446.168 127.589C446.19 128.092 446.201 128.507 446.201 128.835H446.299C446.736 127.917 447.37 127.185 448.201 126.639C449.053 126.07 450.004 125.786 451.053 125.786C451.534 125.786 451.938 125.83 452.266 125.917L452.135 128.77C451.698 128.66 451.228 128.606 450.725 128.606C449.982 128.606 449.337 128.748 448.791 129.032C448.244 129.294 447.785 129.655 447.414 130.114C447.064 130.573 446.802 131.108 446.627 131.72C446.452 132.31 446.365 132.933 446.365 133.589V141.753H443.283V129.556Z" fill="#071412"/>
<path d="M459.833 126.212C459.877 126.606 459.91 127.054 459.931 127.557C459.953 128.037 459.964 128.442 459.964 128.77H460.063C460.259 128.354 460.522 127.972 460.849 127.622C461.199 127.251 461.593 126.934 462.03 126.671C462.467 126.387 462.948 126.169 463.472 126.016C463.997 125.863 464.543 125.786 465.112 125.786C466.117 125.786 466.98 125.961 467.702 126.311C468.423 126.639 469.024 127.087 469.505 127.655C469.986 128.223 470.335 128.89 470.554 129.655C470.794 130.42 470.915 131.239 470.915 132.114V141.753H467.833V133.13C467.833 132.496 467.778 131.895 467.669 131.327C467.581 130.759 467.407 130.256 467.144 129.819C466.882 129.382 466.521 129.032 466.062 128.77C465.603 128.507 465.013 128.376 464.292 128.376C463.068 128.376 462.063 128.846 461.276 129.786C460.511 130.704 460.128 131.939 460.128 133.491V141.753H457.046V129.556C457.046 129.141 457.035 128.606 457.014 127.95C456.992 127.294 456.959 126.715 456.915 126.212H459.833Z" fill="#071412"/>
<path d="M487.685 131.688C487.685 130.529 487.336 129.677 486.636 129.13C485.937 128.562 485.008 128.278 483.849 128.278C482.975 128.278 482.145 128.453 481.358 128.802C480.593 129.13 479.948 129.556 479.423 130.081L477.784 128.114C478.549 127.393 479.478 126.824 480.571 126.409C481.686 125.994 482.877 125.786 484.145 125.786C485.259 125.786 486.221 125.95 487.03 126.278C487.86 126.584 488.538 127.01 489.062 127.557C489.587 128.103 489.98 128.748 490.243 129.491C490.505 130.234 490.636 131.032 490.636 131.884V138.671C490.636 139.195 490.647 139.753 490.669 140.343C490.713 140.911 490.778 141.381 490.866 141.753H488.079C487.904 141.01 487.817 140.266 487.817 139.523H487.718C487.15 140.354 486.429 140.999 485.554 141.458C484.702 141.917 483.686 142.146 482.505 142.146C481.893 142.146 481.249 142.059 480.571 141.884C479.915 141.731 479.314 141.469 478.768 141.097C478.221 140.725 477.762 140.234 477.391 139.622C477.041 139.01 476.866 138.256 476.866 137.359C476.866 136.179 477.183 135.25 477.817 134.573C478.451 133.873 479.281 133.349 480.309 132.999C481.336 132.627 482.494 132.387 483.784 132.278C485.073 132.168 486.374 132.114 487.685 132.114V131.688ZM486.931 134.343C486.166 134.343 485.369 134.376 484.538 134.442C483.729 134.507 482.986 134.638 482.309 134.835C481.653 135.032 481.106 135.327 480.669 135.72C480.232 136.114 480.014 136.638 480.014 137.294C480.014 137.753 480.101 138.135 480.276 138.441C480.473 138.747 480.724 138.999 481.03 139.195C481.336 139.392 481.675 139.534 482.046 139.622C482.418 139.687 482.8 139.72 483.194 139.72C484.636 139.72 485.74 139.294 486.505 138.441C487.292 137.567 487.685 136.474 487.685 135.163V134.343H486.931Z" fill="#071412"/>
<path d="M504.954 128.737H500.823V136.835C500.823 137.775 500.998 138.452 501.348 138.868C501.698 139.261 502.255 139.458 503.02 139.458C503.304 139.458 503.61 139.425 503.938 139.359C504.266 139.294 504.561 139.195 504.823 139.064L504.922 141.589C504.55 141.72 504.135 141.818 503.676 141.884C503.239 141.971 502.78 142.015 502.299 142.015C500.834 142.015 499.709 141.611 498.922 140.802C498.157 139.993 497.774 138.78 497.774 137.163V128.737H494.791V126.212H497.774V121.754H500.823V126.212H504.954V128.737Z" fill="#071412"/>
<path d="M513.138 141.753H510.056V126.212H513.138V141.753ZM513.662 120.606C513.662 121.174 513.455 121.644 513.039 122.016C512.646 122.387 512.165 122.573 511.597 122.573C511.029 122.573 510.548 122.387 510.154 122.016C509.761 121.622 509.564 121.152 509.564 120.606C509.564 120.038 509.761 119.568 510.154 119.196C510.548 118.803 511.029 118.606 511.597 118.606C512.165 118.606 512.646 118.803 513.039 119.196C513.455 119.568 513.662 120.038 513.662 120.606Z" fill="#071412"/>
<path d="M535.146 133.95C535.146 135.152 534.928 136.256 534.491 137.261C534.075 138.266 533.485 139.141 532.72 139.884C531.977 140.605 531.092 141.173 530.065 141.589C529.037 141.982 527.933 142.179 526.753 142.179C525.573 142.179 524.469 141.982 523.442 141.589C522.415 141.173 521.529 140.605 520.786 139.884C520.043 139.141 519.453 138.266 519.016 137.261C518.601 136.256 518.393 135.152 518.393 133.95C518.393 132.748 518.601 131.655 519.016 130.671C519.453 129.666 520.043 128.802 520.786 128.081C521.529 127.36 522.415 126.803 523.442 126.409C524.469 125.994 525.573 125.786 526.753 125.786C527.933 125.786 529.037 125.994 530.065 126.409C531.092 126.803 531.977 127.36 532.72 128.081C533.485 128.802 534.075 129.666 534.491 130.671C534.928 131.655 535.146 132.748 535.146 133.95ZM531.933 133.95C531.933 133.207 531.813 132.496 531.573 131.819C531.354 131.141 531.026 130.551 530.589 130.048C530.152 129.524 529.606 129.108 528.95 128.802C528.316 128.496 527.584 128.343 526.753 128.343C525.923 128.343 525.179 128.496 524.524 128.802C523.89 129.108 523.354 129.524 522.917 130.048C522.48 130.551 522.141 131.141 521.901 131.819C521.682 132.496 521.573 133.207 521.573 133.95C521.573 134.693 521.682 135.403 521.901 136.081C522.141 136.758 522.48 137.359 522.917 137.884C523.354 138.409 523.89 138.824 524.524 139.13C525.179 139.436 525.923 139.589 526.753 139.589C527.584 139.589 528.316 139.436 528.95 139.13C529.606 138.824 530.152 138.409 530.589 137.884C531.026 137.359 531.354 136.758 531.573 136.081C531.813 135.403 531.933 134.693 531.933 133.95Z" fill="#071412"/>
<path d="M543.272 126.212C543.316 126.606 543.349 127.054 543.371 127.557C543.392 128.037 543.403 128.442 543.403 128.77H543.502C543.698 128.354 543.961 127.972 544.289 127.622C544.638 127.251 545.032 126.934 545.469 126.671C545.906 126.387 546.387 126.169 546.911 126.016C547.436 125.863 547.982 125.786 548.551 125.786C549.556 125.786 550.419 125.961 551.141 126.311C551.862 126.639 552.463 127.087 552.944 127.655C553.425 128.223 553.774 128.89 553.993 129.655C554.233 130.42 554.354 131.239 554.354 132.114V141.753H551.272V133.13C551.272 132.496 551.217 131.895 551.108 131.327C551.021 130.759 550.846 130.256 550.583 129.819C550.321 129.382 549.96 129.032 549.501 128.77C549.042 128.507 548.452 128.376 547.731 128.376C546.507 128.376 545.502 128.846 544.715 129.786C543.95 130.704 543.567 131.939 543.567 133.491V141.753H540.485V129.556C540.485 129.141 540.474 128.606 540.453 127.95C540.431 127.294 540.398 126.715 540.354 126.212H543.272Z" fill="#071412"/>
<path d="M570.141 131.688C570.141 130.529 569.791 129.677 569.092 129.13C568.392 128.562 567.463 128.278 566.305 128.278C565.431 128.278 564.6 128.453 563.813 128.802C563.048 129.13 562.404 129.556 561.879 130.081L560.24 128.114C561.005 127.393 561.934 126.824 563.026 126.409C564.141 125.994 565.332 125.786 566.6 125.786C567.715 125.786 568.676 125.95 569.485 126.278C570.316 126.584 570.993 127.01 571.518 127.557C572.042 128.103 572.436 128.748 572.698 129.491C572.96 130.234 573.092 131.032 573.092 131.884V138.671C573.092 139.195 573.103 139.753 573.124 140.343C573.168 140.911 573.234 141.381 573.321 141.753H570.534C570.359 141.01 570.272 140.266 570.272 139.523H570.174C569.605 140.354 568.884 140.999 568.01 141.458C567.157 141.917 566.141 142.146 564.961 142.146C564.349 142.146 563.704 142.059 563.026 141.884C562.371 141.731 561.77 141.469 561.223 141.097C560.677 140.725 560.218 140.234 559.846 139.622C559.497 139.01 559.322 138.256 559.322 137.359C559.322 136.179 559.639 135.25 560.272 134.573C560.906 133.873 561.737 133.349 562.764 132.999C563.791 132.627 564.95 132.387 566.239 132.278C567.529 132.168 568.829 132.114 570.141 132.114V131.688ZM569.387 134.343C568.622 134.343 567.824 134.376 566.993 134.442C566.185 134.507 565.442 134.638 564.764 134.835C564.108 135.032 563.562 135.327 563.125 135.72C562.688 136.114 562.469 136.638 562.469 137.294C562.469 137.753 562.557 138.135 562.731 138.441C562.928 138.747 563.179 138.999 563.485 139.195C563.791 139.392 564.13 139.534 564.502 139.622C564.873 139.687 565.256 139.72 565.649 139.72C567.092 139.72 568.196 139.294 568.961 138.441C569.747 137.567 570.141 136.474 570.141 135.163V134.343H569.387Z" fill="#071412"/>
<path d="M582.616 141.753H579.534V116.967H582.616V141.753Z" fill="#071412"/>
<path d="M620.016 138.146C619.098 139.392 617.907 140.408 616.442 141.195C614.978 141.96 613.219 142.343 611.164 142.343C609.394 142.343 607.754 142.048 606.246 141.458C604.76 140.846 603.47 140.004 602.378 138.933C601.307 137.84 600.465 136.551 599.853 135.064C599.241 133.556 598.935 131.906 598.935 130.114C598.935 128.3 599.241 126.65 599.853 125.163C600.487 123.655 601.35 122.376 602.443 121.327C603.558 120.256 604.869 119.426 606.377 118.836C607.885 118.245 609.525 117.95 611.295 117.95C612.082 117.95 612.88 118.027 613.688 118.18C614.497 118.333 615.273 118.562 616.016 118.868C616.759 119.174 617.437 119.557 618.049 120.016C618.661 120.453 619.186 120.967 619.623 121.557L617.065 123.524C616.497 122.737 615.688 122.092 614.639 121.59C613.612 121.065 612.497 120.803 611.295 120.803C609.94 120.803 608.716 121.054 607.623 121.557C606.552 122.038 605.634 122.704 604.869 123.557C604.104 124.409 603.514 125.404 603.099 126.54C602.684 127.655 602.476 128.846 602.476 130.114C602.476 131.425 602.673 132.649 603.066 133.786C603.481 134.922 604.06 135.917 604.804 136.769C605.569 137.6 606.487 138.256 607.558 138.736C608.65 139.217 609.864 139.458 611.197 139.458C612.508 139.458 613.699 139.195 614.77 138.671C615.841 138.146 616.727 137.381 617.426 136.376L620.016 138.146Z" fill="#071412"/>
<path d="M640.458 133.95C640.458 135.152 640.24 136.256 639.802 137.261C639.387 138.266 638.797 139.141 638.032 139.884C637.289 140.605 636.404 141.173 635.376 141.589C634.349 141.982 633.245 142.179 632.065 142.179C630.885 142.179 629.781 141.982 628.754 141.589C627.726 141.173 626.841 140.605 626.098 139.884C625.355 139.141 624.765 138.266 624.328 137.261C623.912 136.256 623.705 135.152 623.705 133.95C623.705 132.748 623.912 131.655 624.328 130.671C624.765 129.666 625.355 128.802 626.098 128.081C626.841 127.36 627.726 126.803 628.754 126.409C629.781 125.994 630.885 125.786 632.065 125.786C633.245 125.786 634.349 125.994 635.376 126.409C636.404 126.803 637.289 127.36 638.032 128.081C638.797 128.802 639.387 129.666 639.802 130.671C640.24 131.655 640.458 132.748 640.458 133.95ZM637.245 133.95C637.245 133.207 637.125 132.496 636.884 131.819C636.666 131.141 636.338 130.551 635.901 130.048C635.464 129.524 634.917 129.108 634.262 128.802C633.628 128.496 632.896 128.343 632.065 128.343C631.234 128.343 630.491 128.496 629.836 128.802C629.202 129.108 628.666 129.524 628.229 130.048C627.792 130.551 627.453 131.141 627.213 131.819C626.994 132.496 626.885 133.207 626.885 133.95C626.885 134.693 626.994 135.403 627.213 136.081C627.453 136.758 627.792 137.359 628.229 137.884C628.666 138.409 629.202 138.824 629.836 139.13C630.491 139.436 631.234 139.589 632.065 139.589C632.896 139.589 633.628 139.436 634.262 139.13C634.917 138.824 635.464 138.409 635.901 137.884C636.338 137.359 636.666 136.758 636.884 136.081C637.125 135.403 637.245 134.693 637.245 133.95Z" fill="#071412"/>
<path d="M648.158 128.77C648.551 127.939 649.174 127.24 650.027 126.671C650.901 126.081 651.928 125.786 653.108 125.786C654.158 125.786 655.097 126.027 655.928 126.507C656.78 126.988 657.447 127.786 657.928 128.901C658.452 127.895 659.185 127.13 660.125 126.606C661.064 126.059 662.092 125.786 663.206 125.786C664.212 125.786 665.075 125.961 665.796 126.311C666.518 126.639 667.119 127.087 667.6 127.655C668.08 128.223 668.43 128.89 668.649 129.655C668.889 130.42 669.009 131.239 669.009 132.114V141.753H665.928V133.13C665.928 132.496 665.873 131.895 665.764 131.327C665.654 130.759 665.469 130.256 665.206 129.819C664.944 129.382 664.594 129.032 664.157 128.77C663.72 128.507 663.163 128.376 662.485 128.376C661.786 128.376 661.185 128.529 660.682 128.835C660.179 129.119 659.764 129.502 659.436 129.983C659.13 130.442 658.901 130.966 658.748 131.556C658.616 132.147 658.551 132.748 658.551 133.36V141.753H655.469V132.507C655.469 131.895 655.414 131.338 655.305 130.835C655.196 130.332 655.01 129.906 654.748 129.556C654.485 129.185 654.147 128.901 653.731 128.704C653.316 128.485 652.802 128.376 652.19 128.376C651.054 128.376 650.103 128.846 649.338 129.786C648.595 130.704 648.223 131.939 648.223 133.491V141.753H645.142V129.556C645.142 129.141 645.131 128.606 645.109 127.95C645.087 127.294 645.054 126.715 645.01 126.212H647.928C647.972 126.606 648.005 127.054 648.027 127.557C648.049 128.037 648.06 128.442 648.06 128.77H648.158Z" fill="#071412"/>
<path d="M677.705 149.621H674.623V126.212H677.639V128.638H677.738C678.24 127.808 678.972 127.13 679.934 126.606C680.918 126.059 682.054 125.786 683.344 125.786C684.502 125.786 685.551 125.994 686.491 126.409C687.453 126.824 688.273 127.404 688.95 128.147C689.65 128.89 690.185 129.764 690.557 130.77C690.928 131.753 691.114 132.813 691.114 133.95C691.114 135.086 690.928 136.157 690.557 137.163C690.185 138.168 689.661 139.042 688.983 139.786C688.305 140.529 687.486 141.119 686.524 141.556C685.562 141.971 684.48 142.179 683.278 142.179C682.164 142.179 681.114 141.938 680.131 141.458C679.147 140.977 678.371 140.299 677.803 139.425H677.705V149.621ZM687.934 133.95C687.934 133.228 687.825 132.529 687.606 131.851C687.387 131.174 687.06 130.573 686.622 130.048C686.185 129.524 685.639 129.108 684.983 128.802C684.349 128.496 683.606 128.343 682.754 128.343C681.967 128.343 681.246 128.496 680.59 128.802C679.956 129.108 679.41 129.524 678.951 130.048C678.492 130.573 678.131 131.174 677.869 131.851C677.628 132.529 677.508 133.239 677.508 133.983C677.508 134.726 677.628 135.436 677.869 136.114C678.131 136.791 678.492 137.392 678.951 137.917C679.41 138.419 679.956 138.824 680.59 139.13C681.246 139.436 681.967 139.589 682.754 139.589C683.606 139.589 684.349 139.436 684.983 139.13C685.639 138.802 686.185 138.376 686.622 137.851C687.06 137.327 687.387 136.726 687.606 136.048C687.825 135.37 687.934 134.671 687.934 133.95Z" fill="#071412"/>
<path d="M706.057 131.688C706.057 130.529 705.708 129.677 705.008 129.13C704.309 128.562 703.38 128.278 702.221 128.278C701.347 128.278 700.517 128.453 699.73 128.802C698.965 129.13 698.32 129.556 697.795 130.081L696.156 128.114C696.921 127.393 697.85 126.824 698.943 126.409C700.058 125.994 701.249 125.786 702.516 125.786C703.631 125.786 704.593 125.95 705.402 126.278C706.232 126.584 706.91 127.01 707.434 127.557C707.959 128.103 708.352 128.748 708.615 129.491C708.877 130.234 709.008 131.032 709.008 131.884V138.671C709.008 139.195 709.019 139.753 709.041 140.343C709.084 140.911 709.15 141.381 709.237 141.753H706.451C706.276 141.01 706.188 140.266 706.188 139.523H706.09C705.522 140.354 704.8 140.999 703.926 141.458C703.074 141.917 702.057 142.146 700.877 142.146C700.265 142.146 699.62 142.059 698.943 141.884C698.287 141.731 697.686 141.469 697.14 141.097C696.593 140.725 696.134 140.234 695.763 139.622C695.413 139.01 695.238 138.256 695.238 137.359C695.238 136.179 695.555 135.25 696.189 134.573C696.823 133.873 697.653 133.349 698.681 132.999C699.708 132.627 700.866 132.387 702.156 132.278C703.445 132.168 704.746 132.114 706.057 132.114V131.688ZM705.303 134.343C704.538 134.343 703.74 134.376 702.91 134.442C702.101 134.507 701.358 134.638 700.68 134.835C700.025 135.032 699.478 135.327 699.041 135.72C698.604 136.114 698.385 136.638 698.385 137.294C698.385 137.753 698.473 138.135 698.648 138.441C698.844 138.747 699.096 138.999 699.402 139.195C699.708 139.392 700.047 139.534 700.418 139.622C700.79 139.687 701.172 139.72 701.566 139.72C703.008 139.72 704.112 139.294 704.877 138.441C705.664 137.567 706.057 136.474 706.057 135.163V134.343H705.303Z" fill="#071412"/>
<path d="M718.007 126.212C718.051 126.606 718.084 127.054 718.106 127.557C718.128 128.037 718.138 128.442 718.138 128.77H718.237C718.434 128.354 718.696 127.972 719.024 127.622C719.373 127.251 719.767 126.934 720.204 126.671C720.641 126.387 721.122 126.169 721.647 126.016C722.171 125.863 722.718 125.786 723.286 125.786C724.291 125.786 725.155 125.961 725.876 126.311C726.597 126.639 727.198 127.087 727.679 127.655C728.16 128.223 728.51 128.89 728.728 129.655C728.969 130.42 729.089 131.239 729.089 132.114V141.753H726.007V133.13C726.007 132.496 725.952 131.895 725.843 131.327C725.756 130.759 725.581 130.256 725.319 129.819C725.056 129.382 724.696 129.032 724.237 128.77C723.778 128.507 723.187 128.376 722.466 128.376C721.242 128.376 720.237 128.846 719.45 129.786C718.685 130.704 718.302 131.939 718.302 133.491V141.753H715.221V129.556C715.221 129.141 715.21 128.606 715.188 127.95C715.166 127.294 715.133 126.715 715.089 126.212H718.007Z" fill="#071412"/>
<path d="M741.434 138.409H741.499L745.794 126.212H749.073L741.532 145.425C741.27 146.08 740.986 146.66 740.68 147.162C740.374 147.687 740.013 148.124 739.598 148.474C739.182 148.845 738.691 149.129 738.122 149.326C737.576 149.523 736.92 149.621 736.155 149.621C735.827 149.621 735.489 149.599 735.139 149.556C734.811 149.534 734.472 149.479 734.122 149.392L734.418 146.671C734.942 146.845 735.456 146.933 735.958 146.933C736.767 146.933 737.368 146.703 737.762 146.244C738.155 145.807 738.516 145.173 738.844 144.343L739.827 141.753L733.172 126.212H736.614L741.434 138.409Z" fill="#071412"/>
</g>
<defs>
<clipPath id="clip0_1_42">
<rect width="826" height="178" fill="white"/>
</clipPath>
</defs>
</svg>
